<svg width="40.000000" height="40.000000" viewBox="0 0 120 120" fill="none" xmlns="http://www.w3.org/2000/svg">
	<g>
		<path id="Vector" d="M77.65 89.53C78.54 91.34 79.93 92.87 81.65 93.93C83.38 94.99 85.37 95.55 87.4 95.53C91.48 95.53 94.1 93.48 94.1 90.65C94.1 87.28 91.41 86.07 86.91 84.1L84.44 83.04C77.32 80.01 72.59 76.21 72.59 68.18C72.59 60.78 78.22 55.14 87.04 55.14C89.9 54.94 92.75 55.58 95.25 56.98C97.74 58.39 99.77 60.49 101.08 63.04L93.36 67.98C92.86 66.71 91.98 65.63 90.85 64.87C89.72 64.12 88.39 63.72 87.03 63.75C86.43 63.69 85.84 63.75 85.27 63.94C84.7 64.12 84.18 64.42 83.73 64.82C83.29 65.22 82.93 65.7 82.69 66.25C82.44 66.79 82.31 67.38 82.31 67.98C82.31 70.93 84.14 72.13 88.37 73.98L90.84 75.03C99.23 78.63 103.97 82.29 103.97 90.53C103.97 99.42 96.99 104.28 87.62 104.28C83.97 104.52 80.32 103.69 77.13 101.9C73.94 100.11 71.34 97.43 69.64 94.19L77.65 89.53ZM42.79 90.38C44.34 93.13 45.75 95.46 49.14 95.46C52.38 95.46 54.43 94.19 54.43 89.26L54.43 55.71L64.29 55.71L64.29 89.39C64.29 99.6 58.29 104.25 49.56 104.25C46.47 104.42 43.4 103.65 40.76 102.05C38.12 100.44 36.03 98.07 34.76 95.25L42.79 90.38Z" fill="#ffffff" fill-opacity="1.000000" fill-rule="nonzero"/>
	</g>
</svg>
