<svg width="115.490356" height="120.000000" viewBox="0 0 115.49 120" fill="none" xmlns="http://www.w3.org/2000/svg">
	<defs/>
	<path d="M0 0L115.49 0L115.49 120L0 120L0 0Z" fill="#F7DF1E" fill-opacity="1.000000" fill-rule="nonzero"/>
	<path d="M30.36 100.28L39.2 94.72C40.9 97.86 42.45 100.52 46.17 100.52C49.74 100.52 51.99 99.07 51.99 93.43L51.99 55.09L62.84 55.09L62.84 93.59C62.84 105.27 56.25 110.59 46.64 110.59C37.96 110.59 32.92 105.91 30.36 100.28L30.36 100.28Z" fill="#000000" fill-opacity="1.000000" fill-rule="nonzero"/>
	<path d="M68.74 99.07L77.58 93.75C79.9 97.7 82.93 100.6 88.28 100.6C92.77 100.6 95.64 98.26 95.64 95.04C95.64 91.17 92.69 89.8 87.73 87.55L85.02 86.34C77.19 82.88 72 78.53 72 69.34C72 60.89 78.2 54.44 87.89 54.44C94.79 54.44 99.75 56.94 103.32 63.46L94.86 69.1C93 65.64 90.99 64.27 87.89 64.27C84.71 64.27 82.69 66.36 82.69 69.1C82.69 72.49 84.71 73.86 89.36 75.95L92.07 77.16C101.3 81.27 106.49 85.45 106.49 94.88C106.49 105.03 98.82 110.59 88.51 110.59C78.43 110.59 71.92 105.59 68.74 99.07L68.74 99.07Z" fill="#000000" fill-opacity="1.000000" fill-rule="nonzero"/>
</svg>
