<svg width="120.000000" height="113.922241" viewBox="0 0 120 113.922" fill="none" xmlns="http://www.w3.org/2000/svg" xmlns:xlink="http://www.w3.org/1999/xlink">
	<desc>
			Created with Pixso.
	</desc>
	<defs/>
	<path id="Vector" d="M83.14 79.56C87.57 79.1 90.93 75.28 90.78 70.7C90.63 66.12 86.81 62.45 82.23 62.45L81.92 62.45C77.19 62.61 73.52 66.58 73.67 71.31C73.83 73.6 74.74 75.59 76.12 76.96C70.93 87.19 62.99 94.68 51.07 100.94C42.98 105.21 34.58 106.74 26.18 105.67C19.31 104.76 13.97 101.7 10.61 96.66C5.72 89.18 5.26 81.08 9.39 72.99C12.29 67.19 16.87 62.91 19.77 60.77C19.16 58.79 18.24 55.43 17.78 52.99C-4.36 69.02 -2.07 90.71 4.65 100.94C9.69 108.57 19.92 113.31 31.22 113.31C34.28 113.31 37.33 113 40.38 112.24C59.93 108.42 74.74 96.81 83.14 79.56ZM110.02 60.62C98.41 47.03 81.31 39.55 61.76 39.55L59.32 39.55C57.95 36.8 55.04 34.97 51.84 34.97L51.53 34.97C46.8 35.12 43.13 39.09 43.29 43.82C43.44 48.4 47.26 52.07 51.84 52.07L52.14 52.07C55.5 51.92 58.4 49.78 59.63 46.88L62.37 46.88C73.98 46.88 84.97 50.24 94.9 56.8C102.54 61.84 108.03 68.41 111.09 76.35C113.68 82.76 113.53 89.03 110.78 94.37C106.51 102.46 99.33 106.89 89.86 106.89C83.75 106.89 77.95 105.06 74.9 103.69C73.22 105.21 70.16 107.66 68.02 109.18C74.59 112.24 81.31 113.92 87.72 113.92C102.38 113.92 113.23 105.82 117.35 97.73C121.78 88.87 121.47 73.6 110.02 60.62ZM32.44 82.15C32.6 86.73 36.41 90.4 41 90.4L41.3 90.4C46.04 90.25 49.7 86.28 49.55 81.54C49.39 76.96 45.58 73.3 41 73.3L40.69 73.3C40.38 73.3 39.93 73.3 39.62 73.45C33.36 63.06 30.76 51.76 31.68 39.55C32.29 30.38 35.35 22.44 40.69 15.88C45.12 10.23 53.67 7.48 59.47 7.32C75.66 7.02 82.53 27.18 82.99 35.27C84.97 35.73 88.33 36.8 90.63 37.56C88.79 12.82 73.52 0 58.86 0C45.12 0 32.44 9.92 27.4 24.58C20.38 44.13 24.96 62.91 33.51 77.72C32.75 78.79 32.29 80.47 32.44 82.15L32.44 82.15Z" fill="#764ABC" fill-opacity="1.000000" fill-rule="nonzero"/>
</svg>
