<svg width="120.000000" height="120.000000" viewBox="0 0 120 120" fill="none" xmlns="http://www.w3.org/2000/svg" xmlns:xlink="http://www.w3.org/1999/xlink">
	<desc>
			Created with Pixso.
	</desc>
	<defs/>
	<path id="Vector" d="M0 60L0 120L60 120L120 120L120 60L120 0L60 0L0 0L0 60Z" fill="#007ACC" fill-opacity="1.000000" fill-rule="nonzero"/>
	<path id="Vector" d="M26.53 60.39L26.49 65.31L34.3 65.31L42.11 65.31L42.11 87.5L42.11 109.69L47.64 109.69L53.16 109.69L53.16 87.5L53.16 65.31L60.97 65.31L68.78 65.31L68.78 60.49C68.78 57.82 68.72 55.59 68.65 55.54C68.59 55.46 59.08 55.42 47.56 55.44L26.59 55.5L26.53 60.39Z" fill="#FFFFFF" fill-opacity="1.000000" fill-rule="nonzero"/>
	<path id="Vector" d="M96.82 55.36C99.87 56.12 102.19 57.47 104.33 59.68C105.43 60.86 107.07 63.02 107.2 63.53C107.24 63.68 102.02 67.19 98.86 69.15C98.75 69.23 98.29 68.73 97.77 67.97C96.23 65.72 94.61 64.75 92.14 64.58C88.5 64.33 86.15 66.23 86.17 69.42C86.17 70.35 86.31 70.9 86.69 71.66C87.49 73.32 88.97 74.31 93.64 76.33C102.23 80.03 105.91 82.46 108.19 85.93C110.75 89.8 111.32 95.97 109.58 100.56C107.68 105.55 102.96 108.94 96.31 110.06C94.25 110.43 89.37 110.37 87.16 109.97C82.35 109.11 77.77 106.73 74.95 103.61C73.85 102.39 71.7 99.21 71.83 98.98C71.89 98.9 72.38 98.6 72.94 98.27C73.47 97.97 75.49 96.81 77.39 95.7L80.84 93.7L81.56 94.77C82.57 96.31 84.78 98.43 86.12 99.13C89.95 101.15 95.2 100.86 97.79 98.54C98.9 97.53 99.35 96.48 99.35 94.94C99.35 93.55 99.18 92.94 98.46 91.89C97.53 90.56 95.62 89.43 90.21 87.09C84.02 84.43 81.35 82.77 78.92 80.14C77.51 78.62 76.17 76.18 75.62 74.14C75.16 72.44 75.05 68.2 75.41 66.48C76.69 60.5 81.2 56.33 87.72 55.09C89.83 54.69 94.75 54.84 96.82 55.36Z" fill="#FFFFFF" fill-opacity="1.000000" fill-rule="nonzero"/>
</svg>
