<svg width="120.000000" height="112.810425" viewBox="0 0 120 112.81" fill="none" xmlns="http://www.w3.org/2000/svg" xmlns:xlink="http://www.w3.org/1999/xlink">
	<desc>
			Created with Pixso.
	</desc>
	<defs/>
	<path d="M0 56.2C0 65.67 8.84 74.52 22.8 79.51C20.01 94.17 22.3 105.99 29.93 110.6C37.79 115.33 49.48 112.05 60.58 101.91C71.4 111.64 82.34 115.48 89.97 110.86C97.81 106.11 100.2 93.49 97.34 78.36C111.87 73.34 120 65.8 120 56.2C120 46.94 111.13 38.93 97.37 33.98C100.45 18.23 97.84 6.7 89.88 1.9C82.21 -2.72 71.15 1.31 60.17 11.3C48.75 0.7 37.79 -2.54 29.85 2.27C22.19 6.9 20 18.94 22.8 33.88C9.32 38.79 0 46.98 0 56.2Z" fill="#FFFFFF" fill-opacity="1.000000" fill-rule="nonzero"/>
	<path d="M94.45 38.9C93.35 38.5 92.2 38.13 91.02 37.77C91.21 36.94 91.39 36.13 91.55 35.32C94.15 22.14 92.45 11.52 86.65 8.03C81.09 4.68 72 8.17 62.82 16.53C61.93 17.33 61.05 18.18 60.16 19.07C59.57 18.48 58.99 17.91 58.4 17.37C48.77 8.43 39.13 4.67 33.34 8.17C27.78 11.54 26.14 21.52 28.47 34.01C28.7 35.22 28.96 36.45 29.26 37.7C27.9 38.11 26.58 38.54 25.32 39C14.03 43.11 6.83 49.56 6.83 56.24C6.83 63.15 14.56 70.08 26.32 74.28C27.24 74.61 28.21 74.92 29.2 75.22C28.88 76.57 28.6 77.9 28.36 79.2C26.13 91.47 27.87 101.22 33.41 104.56C39.13 108.01 48.74 104.46 58.09 95.91C58.83 95.24 59.57 94.52 60.31 93.77C61.27 94.74 62.24 95.66 63.19 96.52C72.25 104.67 81.19 107.96 86.73 104.61C92.45 101.15 94.3 90.68 91.89 77.94C91.71 76.97 91.49 75.97 91.25 74.96C91.93 74.75 92.59 74.54 93.23 74.32C105.45 70.08 113.4 63.24 113.4 56.24C113.4 49.53 105.96 43.04 94.45 38.9Z" fill="#53C1DE" fill-opacity="1.000000" fill-rule="nonzero"/>
	<path d="M91.8 69.8C91.22 70 90.62 70.19 90.01 70.38C88.66 65.92 86.84 61.17 84.61 56.27C86.74 51.48 88.49 46.79 89.8 42.36C90.89 42.69 91.95 43.03 92.97 43.4C102.83 46.95 108.85 52.2 108.85 56.24C108.85 60.55 102.35 66.14 91.8 69.8ZM87.42 78.87C88.49 84.5 88.64 89.59 87.94 93.57C87.3 97.15 86.02 99.54 84.45 100.49C81.09 102.52 73.91 99.88 66.16 92.91C65.27 92.11 64.38 91.26 63.48 90.36C66.48 86.92 69.48 82.93 72.41 78.5C77.57 78.02 82.43 77.24 86.85 76.17C87.06 77.09 87.26 77.99 87.42 78.87ZM43.16 100.14C39.88 101.35 37.27 101.39 35.69 100.43C32.32 98.41 30.93 90.58 32.83 80.08C33.05 78.88 33.31 77.65 33.61 76.38C37.98 77.39 42.81 78.12 47.97 78.56C50.92 82.9 54.01 86.88 57.12 90.38C56.44 91.06 55.76 91.72 55.09 92.33C50.96 96.11 46.81 98.79 43.16 100.14ZM27.79 69.77C22.59 67.91 18.3 65.5 15.36 62.87C12.71 60.5 11.38 58.15 11.38 56.24C11.38 52.19 17.17 47.01 26.81 43.49C27.99 43.07 29.21 42.66 30.48 42.29C31.82 46.82 33.57 51.56 35.68 56.36C33.54 61.23 31.76 66.04 30.42 70.63C29.51 70.36 28.63 70.07 27.79 69.77ZM32.94 33.1C30.94 22.39 32.27 14.32 35.61 12.29C39.18 10.14 47.06 13.21 55.37 20.93C55.9 21.42 56.44 21.94 56.97 22.47C53.88 25.95 50.82 29.9 47.89 34.22C42.88 34.7 38.08 35.48 33.67 36.53C33.4 35.36 33.15 34.22 32.94 33.1ZM78.91 44.96C77.86 43.06 76.77 41.2 75.67 39.39C79.07 39.84 82.33 40.44 85.39 41.17C84.47 44.25 83.32 47.46 81.98 50.76C81.01 48.84 79.99 46.91 78.91 44.96ZM60.16 25.87C62.26 28.25 64.37 30.91 66.43 33.79C64.35 33.69 62.24 33.63 60.11 33.63C58.01 33.63 55.91 33.68 53.84 33.79C55.91 30.93 58.03 28.28 60.16 25.87ZM41.3 45C40.24 46.91 39.24 48.83 38.29 50.76C36.96 47.47 35.83 44.24 34.9 41.12C37.94 40.41 41.19 39.82 44.56 39.38C43.45 41.21 42.35 43.08 41.3 45L41.3 45ZM44.66 73.44C41.17 73.04 37.88 72.48 34.84 71.79C35.78 68.62 36.94 65.31 38.29 61.95C39.25 63.88 40.26 65.81 41.32 67.72L41.32 67.72C42.4 69.67 43.51 71.58 44.66 73.44ZM60.29 86.95C58.13 84.52 55.98 81.82 53.88 78.93C55.92 79.01 58 79.05 60.11 79.05C62.29 79.05 64.43 79 66.55 78.9C64.47 81.85 62.38 84.55 60.29 86.95ZM82.02 61.78C83.44 65.18 84.64 68.46 85.6 71.59C82.51 72.32 79.17 72.92 75.66 73.36C76.76 71.52 77.86 69.63 78.93 67.69C80.01 65.72 81.04 63.75 82.02 61.78ZM74.98 65.31C73.32 68.33 71.61 71.21 69.87 73.93C66.71 74.17 63.44 74.29 60.11 74.29C56.8 74.29 53.57 74.19 50.46 73.97C48.66 71.22 46.91 68.33 45.26 65.34L45.26 65.34C43.6 62.35 42.09 59.35 40.71 56.36C42.08 53.36 43.6 50.35 45.24 47.37L45.24 47.38C46.89 44.39 48.62 41.51 50.41 38.77C53.58 38.52 56.83 38.39 60.11 38.39L60.11 38.39C63.41 38.39 66.67 38.52 69.83 38.78C71.6 41.5 73.32 44.36 74.97 47.35C76.64 50.37 78.18 53.36 79.56 56.29C78.18 59.27 76.65 62.29 74.98 65.31ZM84.38 12.15C87.95 14.3 89.33 22.98 87.09 34.36C86.95 35.09 86.79 35.83 86.61 36.58C82.19 35.51 77.39 34.72 72.36 34.22C69.43 29.86 66.4 25.9 63.35 22.47C64.17 21.64 64.99 20.86 65.8 20.12C73.67 12.96 81.03 10.13 84.38 12.15Z" fill="#FFFFFF" fill-opacity="1.000000" fill-rule="nonzero"/>
	<path d="M60.11 46.29C65.37 46.29 69.63 50.75 69.63 56.24C69.63 61.74 65.37 66.19 60.11 66.19C54.86 66.19 50.6 61.74 50.6 56.24C50.6 50.75 54.86 46.29 60.11 46.29Z" fill="#53C1DE" fill-opacity="1.000000" fill-rule="nonzero"/>
</svg>
