<svg width="116.671021" height="120.752686" viewBox="0 0 94 86.7527" fill="none" xmlns="http://www.w3.org/2000/svg">
	<path id="Vector" d="M100.46 49.87C96.39 49.89 92.85 50.86 89.89 52.3C88.8 50.16 87.71 48.26 87.52 46.87C87.31 45.24 87.05 44.25 87.31 42.3C87.57 40.36 88.72 37.59 88.69 37.38C88.67 37.17 88.44 36.17 86.09 36.15C83.75 36.13 81.73 36.6 81.49 37.21C81.26 37.82 80.81 39.22 80.51 40.65C80.11 42.77 75.82 50.31 73.37 54.26C72.58 52.72 71.9 51.37 71.75 50.29C71.54 48.66 71.28 47.67 71.54 45.72C71.8 43.78 72.95 41.01 72.93 40.8C72.9 40.59 72.67 39.6 70.33 39.58C67.98 39.55 65.96 40.02 65.72 40.63C65.49 41.25 65.23 42.68 64.74 44.08C64.25 45.47 58.56 58.06 57.07 61.32C56.47 62.63 55.83 63.94 55.17 65.23C55.17 65.23 55.15 65.29 55.09 65.4C54.88 65.8 54.67 66.2 54.45 66.6L54.45 66.62C54.13 67.19 53.79 67.72 53.62 67.72C53.49 67.72 53.26 66.2 53.66 64.13C54.51 59.75 56.54 52.95 56.52 52.72C56.52 52.59 56.9 51.41 55.2 50.8C53.53 50.18 52.94 51.2 52.79 51.2C52.64 51.2 52.53 51.56 52.53 51.56C52.53 51.56 54.39 43.91 48.99 43.91C45.63 43.91 40.98 47.56 38.68 50.86C36.06 52.27 33.45 53.69 30.84 55.11C29.58 55.8 28.28 56.5 27.07 57.16C26.98 57.07 26.89 56.97 26.81 56.88C20.29 49.97 8.23 45.09 8.74 35.81C8.93 32.43 10.1 23.56 31.9 12.78C49.85 4.02 64.12 6.44 66.6 11.83C70.13 19.52 58.95 33.81 40.41 35.88C33.33 36.66 29.62 33.96 28.68 32.94C27.7 31.88 27.56 31.82 27.19 32.03C26.6 32.35 26.98 33.3 27.19 33.85C27.75 35.29 30.03 37.82 33.88 39.07C37.29 40.17 45.58 40.78 55.62 36.93C66.85 32.62 75.63 20.64 73.05 10.61C70.47 0.42 53.43 -2.94 37.29 2.75C27.7 6.13 17.3 11.45 9.82 18.38C0.94 26.62 -0.47 33.79 0.11 36.79C2.17 47.44 16.99 54.37 22.91 59.5C22.61 59.67 22.33 59.82 22.1 59.94C19.14 61.4 7.84 67.26 5.03 73.45C1.83 80.46 5.54 85.49 7.99 86.17C15.6 88.26 23.42 84.5 27.62 78.28C31.82 72.07 31.31 64 29.37 60.3C29.35 60.26 29.32 60.22 29.28 60.18C30.05 59.73 30.84 59.27 31.6 58.82C33.01 58 34.44 57.2 35.89 56.44C35.16 58.4 34.63 60.75 34.37 64.13C34.05 68.1 35.7 73.26 37.85 75.28C38.81 76.17 39.94 76.19 40.66 76.19C43.18 76.19 44.31 74.12 45.56 71.67C47.1 68.67 48.48 65.18 48.48 65.18C48.48 65.18 46.76 74.61 51.44 74.61C53.15 74.61 54.88 72.41 55.64 71.29L55.64 71.31C55.64 71.31 55.68 71.25 55.77 71.1C55.94 70.83 56.05 70.66 56.05 70.66L56.05 70.61C56.73 69.43 58.26 66.75 60.54 62.29C63.48 56.54 66.32 49.36 66.32 49.36C66.32 49.36 66.57 51.11 67.45 54.03C67.96 55.74 69.02 57.62 69.88 59.44C69.2 60.39 68.77 60.92 68.77 60.92L68.79 60.94C68.24 61.66 67.64 62.44 66.98 63.2C64.66 65.95 61.89 69.09 61.5 70C61.05 71.08 61.16 71.86 62.01 72.5C62.63 72.96 63.74 73.02 64.87 72.96C66.96 72.81 68.43 72.31 69.15 71.99C70.28 71.59 71.6 70.97 72.84 70.07C75.12 68.4 76.5 66.01 76.38 62.86C76.31 61.13 75.74 59.4 75.03 57.77C75.25 57.47 75.44 57.18 75.65 56.88C79.25 51.66 82.05 45.94 82.05 45.94C82.05 45.94 82.3 47.69 83.18 50.61C83.6 52.08 84.48 53.69 85.24 55.25C81.85 57.98 79.77 61.15 79.02 63.22C77.68 67.07 78.72 68.8 80.7 69.2C81.6 69.39 82.88 68.97 83.81 68.56C85.01 68.18 86.41 67.53 87.76 66.56C90.04 64.89 92.23 62.56 92.1 59.42C92.04 57.98 91.66 56.56 91.12 55.19C94 54.01 97.71 53.35 102.44 53.9C112.58 55.08 114.59 61.36 114.2 64C113.82 66.64 111.69 68.08 110.99 68.52C110.28 68.97 110.05 69.11 110.11 69.43C110.2 69.9 110.54 69.88 111.14 69.79C111.97 69.64 116.46 67.66 116.65 62.8C116.97 56.58 111.01 49.8 100.46 49.87ZM22.21 76.02C18.84 79.66 14.15 81.03 12.13 79.87C9.95 78.62 10.81 73.26 14.94 69.41C17.45 67.07 20.69 64.89 22.85 63.56C23.34 63.26 24.06 62.84 24.93 62.31C25.08 62.23 25.17 62.18 25.17 62.18L25.68 61.87C27.19 67.36 25.74 72.2 22.21 76.02ZM46.71 59.5C45.54 62.33 43.09 69.58 41.6 69.18C40.32 68.84 39.53 63.35 41.34 57.92C42.26 55.19 44.2 51.94 45.33 50.67C47.16 48.64 49.19 47.96 49.68 48.79C50.29 49.87 47.44 57.73 46.71 59.5ZM66.94 69.09C66.45 69.35 65.98 69.52 65.76 69.39C65.62 69.3 65.98 68.97 65.98 68.97C65.98 68.97 68.51 66.26 69.52 65.04C70.09 64.32 70.77 63.47 71.5 62.52L71.5 62.8C71.5 66.03 68.34 68.21 66.94 69.09L66.94 69.09ZM82.54 65.56C82.17 65.31 82.24 64.47 83.45 61.82C83.92 60.79 85.03 59.06 86.93 57.39C87.14 58.06 87.29 58.72 87.27 59.33C87.25 63.41 84.3 64.93 82.54 65.56Z" fill="#CD6799" fill-opacity="1.000000" fill-rule="nonzero"/>
</svg>
