<svg width="37.736572" height="37.736450" viewBox="0 0 37.7366 37.7365" fill="none" xmlns="http://www.w3.org/2000/svg" xmlns:xlink="http://www.w3.org/1999/xlink">
	<desc>
			Created with Pixso.
	</desc>
	<defs>
		<clipPath id="clip1_3002">
			<rect id="akar-icons:github-fill" rx="-0.262059" width="37.212387" height="37.212387" transform="translate(0.262059 0.262059)" fill="white" fill-opacity="0"/>
		</clipPath>
		<linearGradient x1="0.000000" y1="18.402775" x2="37.736504" y2="18.402775" id="paint_linear_1_3004_0" gradientUnits="userSpaceOnUse">
			<stop stop-color="#00F5A0"/>
			<stop offset="1.000000" stop-color="#00D9F5"/>
		</linearGradient>
	</defs>
	<circle id="Ellipse 3" cx="18.868164" cy="18.868286" r="18.868252" fill="#1F2626" fill-opacity="1.000000"/>
	<rect id="akar-icons:github-fill" rx="-0.262059" width="37.212387" height="37.212387" transform="translate(0.262059 0.262059)" fill="#285B51" fill-opacity="0"/>
	<g clip-path="url(#clip1_3002)">
		<path id="Vector" d="M18.86 0C8.44 0 0 8.44 0 18.86C0 27.21 5.4 34.26 12.9 36.76C13.84 36.93 14.19 36.36 14.19 35.87C14.19 35.42 14.17 33.93 14.17 32.35C9.43 33.23 8.2 31.2 7.83 30.14C7.61 29.59 6.69 27.92 5.89 27.47C5.23 27.12 4.29 26.25 5.87 26.22C7.35 26.2 8.41 27.59 8.77 28.16C10.47 31.01 13.18 30.21 14.26 29.71C14.43 28.49 14.92 27.66 15.47 27.19C11.27 26.72 6.88 25.09 6.88 17.87C6.88 15.82 7.61 14.12 8.82 12.8C8.63 12.33 7.97 10.4 9 7.8C9 7.8 10.58 7.31 14.19 9.74C15.7 9.31 17.31 9.1 18.91 9.1C20.51 9.1 22.12 9.31 23.63 9.74C27.24 7.28 28.82 7.8 28.82 7.8C29.85 10.4 29.19 12.33 29.01 12.8C30.21 14.12 30.94 15.8 30.94 17.87C30.94 25.11 26.53 26.72 22.33 27.19C23.01 27.78 23.6 28.91 23.6 30.68C23.6 33.2 23.58 35.23 23.58 35.87C23.58 36.36 23.93 36.95 24.88 36.76C28.62 35.5 31.88 33.09 34.18 29.88C36.49 26.67 37.73 22.82 37.73 18.86C37.73 8.44 29.29 0 18.86 0Z" fill="url(#paint_linear_1_3004_0)" fill-opacity="1.000000" fill-rule="evenodd"/>
	</g>
</svg>
